<svg width="93" height="93" viewBox="0 0 93 93" fill="none" xmlns="http://www.w3.org/2000/svg">
<circle cx="46.2698" cy="46.5398" r="31.5" transform="rotate(127.5 46.2698 46.5398)" stroke="url(#paint0_linear_2310_2206)" stroke-width="3"/>
<path d="M59.2696 37.0998C59.2696 36.8949 59.2346 36.6921 59.1667 36.5029C59.0988 36.3137 58.9992 36.1417 58.8738 35.9969C58.7483 35.852 58.5993 35.7372 58.4353 35.6588C58.2714 35.5804 58.0957 35.54 57.9182 35.54H35.6214C35.4439 35.54 35.2682 35.5804 35.1042 35.6588C34.9403 35.7372 34.7913 35.852 34.6658 35.9969C34.5403 36.1417 34.4408 36.3137 34.3729 36.5029C34.305 36.6921 34.27 36.8949 34.27 37.0998V56.5956C34.27 57.0092 34.4124 57.406 34.6658 57.6985C34.9193 57.991 35.263 58.1553 35.6214 58.1553H57.9182C58.2766 58.1553 58.6203 57.991 58.8738 57.6985C59.1272 57.406 59.2696 57.0092 59.2696 56.5956V37.0998Z" stroke="#0E814A" stroke-width="2" stroke-linecap="round" stroke-linejoin="round"/>
<path d="M57.0853 35.5391H45.4805M59.2701 54.6877L59.2693 44.9474M36.4553 58.1543H48.06M34.2705 39.0057L34.2815 48.7925M38.6621 40.2183H54.8777M38.6621 44.6375H54.8777M38.6621 49.0559H54.8777M38.6621 53.4751H46.7703" stroke="#0E814A" stroke-width="2" stroke-linecap="round" stroke-linejoin="round"/>
<defs>
<linearGradient id="paint0_linear_2310_2206" x1="46.2698" y1="13.5398" x2="18.7698" y2="153.54" gradientUnits="userSpaceOnUse">
<stop stop-color="#0E814A"/>
<stop offset="0.34375" stop-color="#FAFAFA" stop-opacity="0.8"/>
</linearGradient>
</defs>
</svg>
