<svg width="93" height="93" viewBox="0 0 93 93" fill="none" xmlns="http://www.w3.org/2000/svg">
<circle cx="46.2698" cy="46.2702" r="31.5" transform="rotate(127.5 46.2698 46.2702)" stroke="url(#paint0_linear_2310_2207)" stroke-width="3"/>
<path fill-rule="evenodd" clip-rule="evenodd" d="M56.4962 54.2952C58.2724 52.0328 59.2478 49.2451 59.2696 46.369C59.2915 43.4929 58.3585 40.6908 56.6169 38.4016C55.3321 36.7115 53.6527 35.3618 51.7256 34.4705C49.7985 33.5792 47.6824 33.1735 45.5623 33.2887C43.4421 33.4039 41.3825 34.0366 39.5634 35.1315C37.7443 36.2264 36.2212 37.7501 35.1271 39.5695V35.1263H33.27V41.6249L34.1985 42.5533H40.6982V40.6965H36.6331C37.8737 38.5522 39.7929 36.8818 42.088 35.9486C44.3831 35.0154 46.9236 34.8726 49.3089 35.5427C51.6942 36.2127 53.7886 37.6576 55.2617 39.6493C56.7349 41.6411 57.5031 44.0665 57.4451 46.543C57.3872 49.0195 56.5064 51.4063 54.9417 53.327C53.3769 55.2477 51.2173 56.593 48.8033 57.1508C46.3893 57.7086 43.8582 57.4472 41.6093 56.4077C39.3603 55.3682 37.5214 53.6099 36.3824 51.4099L34.7352 52.2677C35.7383 54.1967 37.2093 55.8433 39.0136 57.0567C40.8178 58.2702 42.8977 59.0117 45.0628 59.2135C47.2279 59.4152 49.4091 59.0707 51.4065 58.2114C53.404 57.3522 55.154 56.0057 56.4962 54.2952ZM50.2547 52.4942L51.5694 51.1815L46.2694 45.8805V38.8398H44.4124V46.2667L44.6835 46.924L50.2547 52.4942Z" fill="#002C96"/>
<defs>
<linearGradient id="paint0_linear_2310_2207" x1="46.2698" y1="13.2702" x2="18.7698" y2="153.27" gradientUnits="userSpaceOnUse">
<stop offset="0.0899185" stop-color="#002C96"/>
<stop offset="0.394399" stop-color="white" stop-opacity="0.8"/>
</linearGradient>
</defs>
</svg>
