<svg width="26" height="44" viewBox="0 0 26 44" fill="none" xmlns="http://www.w3.org/2000/svg">
<path fill-rule="evenodd" clip-rule="evenodd" d="M22.4235 43.7966H3.57677C1.60465 43.7966 0 42.1922 0 40.2198V3.57677C0 1.60465 1.60465 0 3.57677 0H22.4235C24.3956 0 26 1.60465 26 3.57677V40.2198C26 42.1904 24.3938 43.7966 22.4235 43.7966ZM16.2048 41.1224H9.79212C8.57112 41.1224 8.57112 39.268 9.79212 39.268H16.2048C17.4235 39.268 17.4273 41.1224 16.2048 41.1224ZM6.38163 4.30301C5.71006 4.30301 4.2812 4.53602 4.2812 3.37584C4.2812 2.21566 5.71031 2.44867 6.38163 2.44867C7.60238 2.44867 7.60263 4.30301 6.38163 4.30301ZM15.1724 4.30301H10.8248C9.60376 4.30301 9.60376 2.44867 10.8248 2.44867H15.1691C16.3896 2.44867 16.3909 4.30301 15.1724 4.30301ZM24.1462 6.33185H1.85485V37.0172H24.1462V6.33185Z" fill="white" fill-opacity="0.8"/>
<path fill-rule="evenodd" clip-rule="evenodd" d="M9.65563 30.2556C9.32152 30.2556 9.07567 29.9292 9.1696 29.6071L11.1037 22.927L8.86627 22.7015C8.4721 22.6627 8.26886 22.1988 8.51752 21.8841L14.8317 13.7344C15.1684 13.3007 15.8715 13.6456 15.7232 14.1855L14.0038 20.2985H17.0866C17.5226 20.2985 17.7438 20.8066 17.4741 21.1299L10.0467 30.0724C9.94459 30.1922 9.80011 30.2556 9.65563 30.2556Z" fill="white" fill-opacity="0.8"/>
</svg>
