<svg width="19" height="13" viewBox="0 0 19 13" fill="none" xmlns="http://www.w3.org/2000/svg">
<path d="M18.0352 12.5865H0.667969C0.490812 12.5865 0.320912 12.5262 0.195643 12.4189C0.070375 12.3116 0 12.1661 0 12.0144V2.28833C0 2.1366 0.070375 1.99107 0.195643 1.88378C0.320912 1.77649 0.490812 1.71621 0.667969 1.71621H4.98305L6.12527 0.257302C6.18578 0.1786 6.26805 0.113919 6.36477 0.0690052C6.46149 0.0240911 6.56967 0.000334927 6.67969 -0.000152588H12.0234C12.1335 0.000334927 12.2416 0.0240911 12.3384 0.0690052C12.4351 0.113919 12.5173 0.1786 12.5779 0.257302L13.7201 1.71621H18.0352C18.2123 1.71621 18.3822 1.77649 18.5075 1.88378C18.6327 1.99107 18.7031 2.1366 18.7031 2.28833V12.0144C18.7031 12.1661 18.6327 12.3116 18.5075 12.4189C18.3822 12.5262 18.2123 12.5865 18.0352 12.5865ZM1.33594 11.4423H17.3672V2.86045H13.3594C13.2494 2.85997 13.1412 2.83621 13.0445 2.7913C12.9477 2.74638 12.8655 2.6817 12.805 2.603L11.6627 1.14409H7.04039L5.89816 2.603C5.83765 2.6817 5.75538 2.74638 5.65866 2.7913C5.56194 2.83621 5.45377 2.85997 5.34375 2.86045H1.33594V11.4423Z" fill="white"/>
<path d="M9.35156 10.2981C8.55889 10.2981 7.78402 10.0967 7.12494 9.71955C6.46586 9.34236 5.95217 8.80624 5.64883 8.17899C5.34549 7.55174 5.26612 6.86154 5.42076 6.19565C5.5754 5.52977 5.95711 4.91812 6.51761 4.43804C7.07812 3.95797 7.79224 3.63103 8.56968 3.49858C9.34712 3.36613 10.153 3.4341 10.8853 3.69392C11.6176 3.95373 12.2436 4.39372 12.6839 4.95822C13.1243 5.52273 13.3594 6.18642 13.3594 6.86534C13.3594 7.77576 12.9371 8.64889 12.1855 9.29265C11.4339 9.93641 10.4145 10.2981 9.35156 10.2981ZM9.35156 4.57686C8.82312 4.57686 8.30654 4.71108 7.86715 4.96254C7.42776 5.214 7.0853 5.57141 6.88307 5.98958C6.68085 6.40775 6.62793 6.86788 6.73103 7.31181C6.83412 7.75573 7.08859 8.1635 7.46226 8.48355C7.83593 8.8036 8.31201 9.02155 8.83031 9.10986C9.3486 9.19816 9.88582 9.15284 10.374 8.97963C10.8623 8.80642 11.2796 8.5131 11.5731 8.13676C11.8667 7.76042 12.0234 7.31796 12.0234 6.86534C12.0234 6.2584 11.7419 5.67632 11.2409 5.24714C10.7398 4.81797 10.0602 4.57686 9.35156 4.57686Z" fill="white"/>
</svg>
