<svg width="23" height="41" viewBox="0 0 23 41" fill="none" xmlns="http://www.w3.org/2000/svg">
<path d="M22.3185 14.1808H13.067L21.6432 0.674805H10.8385L0.708984 20.9338H8.67749L0.708984 39.8422L22.3185 14.1808Z" fill="#FFDD09"/>
<path d="M13.5396 0.674805H10.8385L0.708984 20.9338H3.41015L13.5396 0.674805Z" fill="white"/>
<path d="M18.942 14.1816L2.73486 33.4277L0.0336914 39.843L21.6432 14.1816H18.942Z" fill="#FD9808"/>
<path d="M0.709084 40.518C0.573998 40.518 0.438991 40.518 0.371408 40.4505C0.101315 40.2479 -0.0337716 39.9102 0.101315 39.6401L7.66464 21.6096H0.709084C0.506494 21.6096 0.236401 21.4745 0.101315 21.2719C-0.0337716 21.0693 -0.0337716 20.7992 0.101315 20.5967L10.2308 0.337676C10.3659 0.135086 10.5685 0 10.8386 0H21.6433C21.9134 0 22.116 0.135086 22.2511 0.337676C22.3862 0.540266 22.3862 0.810359 22.2511 1.01295L14.3501 13.506H22.3186C22.5887 13.506 22.7913 13.6411 22.9264 13.9112C23.0615 14.1813 22.9939 14.4515 22.8589 14.654L1.24927 40.3154C1.11426 40.4505 0.911674 40.518 0.709084 40.518ZM1.78954 20.259H8.67759C8.88018 20.259 9.08277 20.3941 9.21785 20.5291C9.35294 20.7317 9.35294 20.9342 9.28536 21.1368L3.07258 35.9934L20.9005 14.8566H13.067C12.7969 14.8566 12.5943 14.7215 12.4592 14.5189C12.3241 14.3163 12.3241 14.0462 12.4592 13.8436L20.4278 1.35062H11.2438L1.78954 20.259Z" fill="black"/>
</svg>
