<svg width="35" height="43" viewBox="0 0 35 43" fill="none" xmlns="http://www.w3.org/2000/svg">
<path d="M9.63238 4.63878H15.5905C15.9773 4.63878 16.2908 4.32531 16.2908 3.93853C16.2908 3.55175 15.9773 3.23828 15.5905 3.23828H9.63238C9.2456 3.23828 8.93213 3.55175 8.93213 3.93853C8.93213 4.32531 9.2456 4.63878 9.63238 4.63878Z" fill="white"/>
<path d="M12.6109 35.3242C11.2117 35.3245 10.0771 36.4586 10.0776 37.8577C10.0776 39.2574 11.2117 40.3915 12.6111 40.3915C14.0103 40.3915 15.1443 39.2574 15.1443 37.8577C15.143 36.4594 14.0097 35.3259 12.6109 35.3242ZM12.6109 38.991C11.985 38.991 11.4776 38.4836 11.4781 37.8577C11.4781 37.2321 11.985 36.7247 12.6111 36.7247C13.237 36.7247 13.7438 37.2321 13.7438 37.8577C13.7433 38.4836 13.2364 38.9901 12.6109 38.991Z" fill="white"/>
<path d="M25.2091 10.0957V4.23379C25.2091 1.91694 23.343 0 21.0264 0H4.19549C1.87864 0 0 1.91694 0 4.23379V38.4816C0 40.7984 1.87864 42.7153 4.19549 42.7153H21.0264C23.343 42.7153 25.2091 40.7984 25.2091 38.4816V32.6197C30.7235 31.8478 35 27.0921 35 21.3577C35 15.6233 30.7235 10.8676 25.2091 10.0957ZM29.8009 25.8412C30.1666 24.6114 30.3753 23.3403 30.4213 22.0579H33.5935C33.4611 23.9634 32.7814 25.79 31.6358 27.3186C31.0775 26.763 30.4623 26.2679 29.8009 25.8412ZM19.1948 26.4878C20.3626 25.9082 21.6326 25.5641 22.9332 25.4741V31.0001C21.2701 29.9918 19.9933 28.431 19.1948 26.4878ZM22.9332 24.0706C21.4802 24.1557 20.0578 24.523 18.7451 25.1522C18.4716 24.142 18.3129 23.1039 18.2727 22.0579H22.9332V24.0706ZM18.2727 20.6574C18.3129 19.6114 18.4716 18.5736 18.7451 17.5635C20.0578 18.1929 21.4802 18.5605 22.9332 18.6453V20.6574H18.2727ZM22.9332 11.7158V17.2421C21.6326 17.1532 20.362 16.8088 19.1946 16.2283C19.9933 14.2851 21.2701 12.7243 22.9332 11.7158ZM24.3337 18.6483C25.7917 18.5687 27.2201 18.2038 28.5377 17.5747C28.8137 18.581 28.9754 19.615 29.02 20.6574H24.3337V18.6483ZM24.3337 17.2442V11.7158C25.9968 12.726 27.2784 14.2909 28.0768 16.2385C26.9083 16.8183 25.6358 17.1603 24.3337 17.2442ZM17.9883 15.5106C17.4825 15.1621 17.0098 14.7671 16.5768 14.3316C17.6532 13.2473 18.9634 12.4243 20.4077 11.9259C19.3745 12.9514 18.5526 14.1692 17.9883 15.5106ZM15.6586 15.394C16.2179 15.946 16.8334 16.439 17.4948 16.8638C17.1269 18.0969 16.9174 19.3715 16.8709 20.6574H13.6987C13.8311 18.7506 14.5119 16.9226 15.6586 15.3935V15.394ZM16.8709 22.0579C16.9174 23.3438 17.1269 24.6188 17.4948 25.8519C16.8334 26.2769 16.2179 26.7693 15.6586 27.3218C14.5119 25.7928 13.8311 23.9647 13.6987 22.0579H16.8709ZM17.9883 27.2053C18.5526 28.5465 19.3743 29.764 20.4069 30.7895C18.9629 30.2908 17.6526 29.468 16.5768 28.3837C17.0098 27.9482 17.4825 27.5535 17.9883 27.2053ZM24.3337 31.0001V25.4706C25.6358 25.5543 26.9083 25.8962 28.0768 26.4766C27.2784 28.4247 25.9968 29.9899 24.3337 31.0001ZM24.3337 24.0668V22.0579H29.02C28.9754 23.1001 28.8137 24.1343 28.5377 25.1404C27.2204 24.511 25.7917 24.1461 24.3337 24.0668ZM30.4213 20.6574C30.3753 19.3751 30.1666 18.104 29.8004 16.8741C30.4623 16.4474 31.0775 15.9523 31.6358 15.3968C32.7814 16.9253 33.4611 18.752 33.5935 20.6574H30.4213ZM30.7181 14.3335C30.2864 14.7723 29.814 15.1692 29.308 15.5193C28.7431 14.1746 27.9203 12.9536 26.885 11.9259C28.3301 12.4245 29.6414 13.2484 30.7181 14.3335ZM4.19549 1.4005H21.0264C22.5708 1.4005 23.8086 2.68913 23.8086 4.23379V6.91498H1.4005V4.23379C1.4005 2.68913 2.65111 1.4005 4.19549 1.4005ZM21.0264 41.3148H4.19549C2.65111 41.3148 1.4005 40.0262 1.4005 38.4816V34.3999H23.8086V38.4816C23.8086 40.0262 22.5708 41.3148 21.0264 41.3148ZM23.8086 32.9994H1.4005V8.31549H23.8086V9.98734C23.8086 9.98652 23.6975 9.98515 23.6371 9.98515C17.366 9.98515 12.2689 15.0869 12.2689 21.3577C12.2689 27.6288 17.3632 32.7307 23.6346 32.7307C23.695 32.7307 23.8086 32.7291 23.8086 32.7283V32.9994ZM26.8856 30.7895C27.9206 29.7618 28.7437 28.5407 29.308 27.196C29.814 27.5461 30.2864 27.943 30.7181 28.3815C29.6414 29.4666 28.3307 30.2903 26.8856 30.7895Z" fill="white"/>
</svg>
