<svg width="26" height="25" viewBox="0 0 26 25" fill="none" xmlns="http://www.w3.org/2000/svg">
<path d="M5.90909 10.9643H15.3636V13.3643H5.90909V16.9643L0 12.1643L5.90909 7.36431V10.9643ZM4.72727 19.3643H7.92764C9.29226 20.5863 10.9752 21.3825 12.7744 21.6574C14.5737 21.9323 16.4128 21.6742 18.0712 20.9141C19.7296 20.154 21.1367 18.9241 22.1237 17.3721C23.1108 15.8201 23.6358 14.0118 23.6358 12.1643C23.6358 10.3168 23.1108 8.50856 22.1237 6.95653C21.1367 5.4045 19.7296 4.17464 18.0712 3.41451C16.4128 2.65438 14.5737 2.39628 12.7744 2.67118C10.9752 2.94608 9.29226 3.74231 7.92764 4.96431H4.72727C5.82714 3.47292 7.25439 2.26252 8.89563 1.42928C10.5369 0.596037 12.3469 0.16291 14.1818 0.16431C20.709 0.16431 26 5.53671 26 12.1643C26 18.7919 20.709 24.1643 14.1818 24.1643C12.3469 24.1657 10.5369 23.7326 8.89563 22.8993C7.25439 22.0661 5.82714 20.8557 4.72727 19.3643Z" fill="#FF0000" fill-opacity="0.7"/>
</svg>
