<svg width="45" height="37" viewBox="0 0 45 37" fill="none" xmlns="http://www.w3.org/2000/svg">
<path d="M44.1964 0H0.803571C0.359196 0 0 0.36 0 0.803571V31.3393C0 31.7829 0.359196 32.1429 0.803571 32.1429H19.2857V35.3571H11.25C10.1861 35.3571 10.1869 36.9643 11.25 36.9643H33.75C34.8139 36.9643 34.8131 35.3571 33.75 35.3571H25.7143V32.1429H44.1964C44.6408 32.1429 45 31.7829 45 31.3393V0.803571C45 0.36 44.6408 0 44.1964 0ZM24.1071 35.3571H20.8929V32.1429H24.1071V35.3571ZM43.3929 30.5357H1.60714V1.60714H43.3929V30.5357Z" fill="white"/>
<path d="M4.01744 28.9352H40.9817C41.4261 28.9352 41.7853 28.5752 41.7853 28.1316V4.01158C41.7853 3.56801 41.4261 3.20801 40.9817 3.20801H4.01744C3.57306 3.20801 3.21387 3.56801 3.21387 4.01158V28.1316C3.21387 28.5752 3.57306 28.9352 4.01744 28.9352ZM4.82101 4.81515H40.1782V27.328H4.82101V4.81515Z" fill="white"/>
<path d="M20.8922 11.25H14.4637C13.3997 11.25 13.4005 12.8571 14.4637 12.8571H16.8744V21.6964C16.8744 22.7596 18.4815 22.7604 18.4815 21.6964V12.8571H20.8922C21.9562 12.8571 21.9554 11.25 20.8922 11.25Z" fill="white"/>
<path d="M29.7739 11.7996L27.3214 19.1555L24.8689 11.7996C24.5322 10.7919 23.0078 11.299 23.3453 12.3083L26.5596 21.9511C26.8023 22.6808 27.8405 22.6824 28.0832 21.9511L31.2975 12.3083C31.6342 11.2998 30.1106 10.7903 29.7739 11.7996Z" fill="white"/>
</svg>
